<svg width="118" height="34" viewBox="0 0 118 34" fill="none" xmlns="http://www.w3.org/2000/svg">
<path d="M13.4886 3.19111C13.7401 3.04293 14.0481 2.90067 14.319 3.09331C15.4278 3.70829 16.5187 4.35735 17.623 4.97678C17.6289 5.01234 17.6394 5.08199 17.6453 5.11755C14.0496 7.1581 10.4763 9.23717 6.88506 11.2851C6.41923 11.5696 5.88791 11.7727 5.49947 12.1654C5.43994 12.6722 5.47566 13.1834 5.49352 13.6917C6.1052 13.3983 6.6901 13.0574 7.27499 12.7166C11.0508 10.5457 14.834 8.38805 18.6053 6.2097C18.8508 6.08818 19.1395 5.86294 19.4193 6.03335C20.165 6.40086 20.8466 6.88395 21.5878 7.26183C21.9836 7.49893 22.442 7.66342 22.7635 8.00277C22.7218 8.18355 22.5164 8.24431 22.387 8.34952C15.5007 12.2661 8.65611 16.2568 1.76687 20.169C1.73562 16.7547 1.75794 13.3405 1.75496 9.92624C5.66318 7.67527 9.5848 5.44949 13.4886 3.19111Z" fill="#FF8345"/>
<path d="M23.9095 9.12279C24.1253 9.01758 24.3842 8.84123 24.6194 9.00276C25.1775 9.27987 25.6924 9.63404 26.2386 9.93338C26.2371 10.575 26.2669 11.2167 26.2357 11.8583C26.2595 12.128 25.9618 12.2199 25.7862 12.3474C22.4584 14.2338 19.1544 16.1632 15.8266 18.0526C15.0676 17.6258 14.3175 17.1842 13.5927 16.7026C13.0897 16.3603 12.5152 16.1365 11.9154 16.0402C13.1671 15.2192 14.514 14.5598 15.7939 13.7848C18.4966 12.2273 21.2142 10.6921 23.9095 9.12279Z" fill="#FF8345"/>
<path d="M17.9683 18.5223C20.5668 16.9575 23.2293 15.4978 25.8517 13.9715C26.2743 14.788 26.0645 15.7201 26.0913 16.5974C26.0481 19.0351 26.1791 21.4787 25.9871 23.9104C25.0986 23.288 24.1282 22.8035 23.1772 22.2907C22.7263 22.1114 22.7561 21.5987 22.6891 21.2001C22.6429 21.4061 22.5953 21.6106 22.5477 21.8165C22.5343 21.2845 22.5373 20.7526 22.515 20.222C22.0149 20.471 21.5223 20.7333 21.0386 21.0134C20.095 20.4088 19.0711 19.9301 18.1603 19.2781C17.8596 19.1299 17.9474 18.7891 17.9683 18.5223Z" fill="#FF8345"/>
<path d="M25.8517 13.9715C25.9782 13.9063 26.1032 13.8411 26.2312 13.7788C26.255 16.9426 26.2282 20.1065 26.2476 23.2703C26.2446 23.5029 26.2505 23.7385 26.2118 23.9712C25.8279 24.2601 25.3918 24.4706 24.9781 24.7106C21.3124 26.7942 17.6721 28.9251 14.002 30.9997C12.7697 30.3136 11.5419 29.6171 10.3438 28.8747C11.6044 28.0582 12.9334 27.3573 14.2327 26.606C16.9949 24.9937 19.7899 23.4362 22.5477 21.8165C22.5953 21.6106 22.6429 21.4061 22.6891 21.2001C22.7561 21.5987 22.7263 22.1114 23.1772 22.2907C24.1282 22.8035 25.0986 23.288 25.9871 23.9104C26.1791 21.4787 26.0481 19.0351 26.0913 16.5974C26.0645 15.7201 26.2743 14.788 25.8517 13.9715Z" fill="#FF8345"/>
<path d="M1.81449 21.8343C5.16014 19.8723 8.54151 17.9577 11.9154 16.0402C12.5152 16.1365 13.0897 16.3603 13.5927 16.7026C14.3175 17.1842 15.0676 17.6258 15.8266 18.0526C13.0257 19.6812 10.1801 21.2386 7.41637 22.9265C7.86881 23.1902 8.30041 23.5074 8.79451 23.6926C8.97311 23.6496 9.13384 23.5592 9.29458 23.4748C12.1937 21.8402 15.0542 20.1331 17.9683 18.5223C17.9474 18.7891 17.8596 19.1299 18.1603 19.2781C19.0711 19.9301 20.095 20.4088 21.0386 21.0134C17.1229 23.2643 13.2043 25.5094 9.28862 27.7618C9.07431 27.8567 8.82874 28.0864 8.59955 27.9011C6.31058 26.6193 4.04988 25.2841 1.76538 23.9934C1.7877 23.2747 1.69096 22.5441 1.81449 21.8343Z" fill="#FF8345"/>
<path d="M37.7699 27V6.63636H42.0753V15.6151H42.3438L49.6719 6.63636H54.8324L47.2756 15.7543L54.9219 27H49.7713L44.1932 18.6278L42.0753 21.2131V27H37.7699ZM74.6672 6.63636V27H70.9485L62.0891 14.1832H61.94V27H57.6346V6.63636H61.413L70.2028 19.4432H70.3817V6.63636H74.6672ZM97.4975 16.8182C97.4975 19.0388 97.0766 20.928 96.2347 22.4858C95.3995 24.0436 94.2593 25.2334 92.8142 26.0554C91.3758 26.8707 89.7584 27.2784 87.962 27.2784C86.1523 27.2784 84.5283 26.8674 83.0898 26.0455C81.6514 25.2235 80.5145 24.0336 79.6793 22.4759C78.8441 20.9181 78.4265 19.0322 78.4265 16.8182C78.4265 14.5975 78.8441 12.7083 79.6793 11.1506C80.5145 9.5928 81.6514 8.40625 83.0898 7.59091C84.5283 6.76894 86.1523 6.35795 87.962 6.35795C89.7584 6.35795 91.3758 6.76894 92.8142 7.59091C94.2593 8.40625 95.3995 9.5928 96.2347 11.1506C97.0766 12.7083 97.4975 14.5975 97.4975 16.8182ZM93.1324 16.8182C93.1324 15.3797 92.917 14.1667 92.4861 13.179C92.0619 12.1913 91.462 11.4422 90.6864 10.9318C89.9108 10.4214 89.0027 10.1662 87.962 10.1662C86.9213 10.1662 86.0131 10.4214 85.2375 10.9318C84.462 11.4422 83.8588 12.1913 83.4279 13.179C83.0036 14.1667 82.7915 15.3797 82.7915 16.8182C82.7915 18.2566 83.0036 19.4697 83.4279 20.4574C83.8588 21.4451 84.462 22.1941 85.2375 22.7045C86.0131 23.215 86.9213 23.4702 87.962 23.4702C89.0027 23.4702 89.9108 23.215 90.6864 22.7045C91.462 22.1941 92.0619 21.4451 92.4861 20.4574C92.917 19.4697 93.1324 18.2566 93.1324 16.8182ZM101.247 27V6.63636H109.281C110.819 6.63636 112.131 6.91146 113.218 7.46165C114.312 8.00521 115.144 8.77746 115.714 9.77841C116.291 10.7727 116.579 11.9427 116.579 13.2884C116.579 14.6406 116.287 15.804 115.704 16.7784C115.121 17.7462 114.276 18.4886 113.169 19.0057C112.068 19.5227 110.736 19.7812 109.171 19.7812H103.792V16.321H108.475C109.297 16.321 109.98 16.2083 110.524 15.983C111.067 15.7576 111.472 15.4195 111.737 14.9688C112.009 14.518 112.144 13.9579 112.144 13.2884C112.144 12.6122 112.009 12.0421 111.737 11.5781C111.472 11.1141 111.064 10.7628 110.514 10.5241C109.97 10.2789 109.284 10.1562 108.456 10.1562H105.552V27H101.247ZM112.244 17.733L117.305 27H112.552L107.6 17.733H112.244Z" fill="#0E0C1E"/>
</svg>
